<?xml version="1.0" encoding="utf-8"?>
<svg xmlns="http://www.w3.org/2000/svg" viewBox="0 -3.953 332.218 448.711" xmlns:bx="https://boxy-svg.com" width="332.218px" height="448.711px"><defs><bx:export><bx:file format="svg" href="#object-0"/><bx:file format="svg" href="#object-1" path="Untitled 2.svg"/><bx:file format="svg" href="#object-2" path="Untitled 3.svg"/><bx:file format="svg" href="#object-3" path="Untitled 4.svg"/><bx:file format="svg" href="#object-4" path="Untitled 5.svg"/><bx:file format="svg" href="#object-5" path="Untitled 6.svg"/><bx:file format="svg" href="#object-6" path="Untitled 7.svg"/><bx:file format="svg" href="#object-7" path="Untitled 8.svg"/><bx:file format="svg" href="#object-8" path="Untitled 9.svg"/><bx:file format="svg" href="#object-9" path="Untitled 10.svg"/><bx:file format="svg" href="#object-10" path="Untitled 11.svg"/><bx:file format="svg" href="#object-11" path="Untitled 12.svg"/><bx:file format="svg" path="logo-no-text.svg" width="332.218" height="448.711"/></bx:export></defs><g id="object-11" transform="matrix(1, 0, 0, 1, -68.696159, -5.499854)"><path fill="#6CB04C" d="M 120.365 10.99 C 129.785 5.336 143.384 4.295 154.108 4.328 C 176.41 4.395 198.283 12.105 214.082 28.176 C 231.388 46.114 240.995 70.108 240.85 95.034 L 241.222 95.717 C 242.102 95.356 251.163 82.327 253.012 80.079 C 260.118 71.437 269.053 61.943 278.94 56.564 C 292.811 45.774 315.842 41.012 333.069 43.104 C 348.151 44.935 369.47 52.59 379.159 64.972 C 379.71 65.675 380.226 66.395 380.746 67.12 C 378.269 67.951 375.823 68.778 373.272 69.361 C 336.086 78.48 301.181 95.172 270.738 118.393 C 295.912 110.903 321.988 111.307 345.463 124.032 C 365.932 135.127 381.899 153.645 388.516 176.104 C 390.786 183.81 391.264 191.006 391.968 198.918 C 365.749 179.745 337.684 162.349 306.776 151.814 C 296.518 148.317 285.335 146.795 275.411 143.194 L 275.717 143.509 C 280.462 148.318 285.886 152.413 290.628 157.281 C 306.666 173.747 317.039 194.218 316.976 217.505 C 316.927 235.479 310.772 251.4 301.227 266.374 C 298.08 260.61 296.425 253.857 294.308 247.655 C 291.644 239.688 288.654 231.835 285.343 224.115 C 277.828 206.29 268.617 189.229 257.838 173.166 C 254.135 167.613 249.837 162.455 246.163 156.918 C 245.271 156.301 244.39 154.863 243.684 153.998 C 241.523 151.696 239.458 149.111 236.047 148.99 C 231.734 148.838 226.525 152.361 223.181 154.859 C 191.929 173.304 164.657 197.781 142.952 226.864 C 138.159 233.155 134.362 240.073 129.646 246.403 C 125.864 235.487 126.344 221.994 128.383 210.767 C 133.954 180.092 156.758 153.646 183.386 138.695 C 187.712 136.31 192.189 134.208 196.787 132.404 C 199.187 131.464 202.343 130.998 204.446 129.545 L 204.282 128.864 L 202.05 128.031 C 191.614 127.285 181.272 125.369 170.806 124.594 C 139.269 122.256 109.683 126.891 79.848 136.88 C 79.215 137.209 78.434 137.347 77.746 137.539 L 77.263 136.69 C 77.373 135.223 77.767 134.022 78.323 132.657 C 84.544 117.369 101.955 96.577 117.484 90.148 C 132.726 79.926 157.602 79.736 174.895 83.217 C 185.149 85.281 202.602 90.327 210.971 96.673 L 212.698 97.57 L 213.342 96.848 C 188.044 59.154 162.04 30.806 120.365 10.99" style="stroke-width: 1;" id="object-0"/><path fill="#4E902D" d="M 120.365 10.99 C 129.785 5.336 143.384 4.295 154.108 4.328 C 176.41 4.395 198.283 12.105 214.082 28.176 C 231.388 46.114 240.995 70.108 240.85 95.034 C 240.743 94.828 240.63 94.625 240.528 94.417 C 237.91 89.092 238.309 79.541 237.038 73.49 C 231.193 45.656 212.261 21.079 185.394 10.988 C 169.832 5.143 151.839 4.512 135.563 7.166 C 132.38 7.685 128.49 8.153 125.564 9.569 C 124.878 9.9 124.381 10.352 123.868 10.902 C 124.127 11.361 140.859 20.584 144.355 22.8 C 168.725 38.251 189.927 60.562 206.258 84.222 C 208.635 87.667 212.927 92.727 213.342 96.848 C 188.044 59.154 162.04 30.806 120.365 10.99" style="stroke-width: 1;" id="object-1"/><path fill="#4E902D" d="M 246.163 156.918 C 252.337 157.82 275.259 199.126 279.001 206.796 C 283.554 216.347 287.783 226.048 291.681 235.884 C 293.975 241.595 298.407 259.695 301.479 263.072 L 302.084 262.963 C 303.064 261.647 303.84 260.322 304.596 258.869 C 314.07 240.659 318.243 220.546 313.854 200.247 C 313.04 196.482 311.521 192.825 310.395 189.137 C 306.621 176.774 295.135 163.233 285.99 154.291 C 284.055 152.4 276.332 146.4 275.668 144.7 C 275.482 144.226 275.497 143.696 275.411 143.194 L 275.717 143.509 C 280.462 148.318 285.886 152.413 290.628 157.281 C 306.666 173.747 317.039 194.218 316.976 217.505 C 316.927 235.479 310.772 251.4 301.227 266.374 C 298.08 260.61 296.425 253.857 294.308 247.655 C 291.644 239.688 288.654 231.835 285.343 224.115 C 277.828 206.29 268.617 189.229 257.838 173.166 C 254.135 167.613 249.837 162.455 246.163 156.918" style="stroke-width: 1;" id="object-2"/><path fill="#5DA63D" d="M 79.848 136.88 C 80.06 136.508 80.147 136.305 80.481 135.981 C 82.712 133.812 88.115 132.658 91.134 131.782 C 110.302 126.018 130.189 122.992 150.203 122.792 C 157.269 122.768 197.957 123.93 202.05 128.031 C 191.614 127.285 181.272 125.369 170.806 124.594 C 139.269 122.256 109.683 126.891 79.848 136.88" style="stroke-width: 1;" id="object-3"/><path fill="#4E902D" d="M 278.94 56.564 C 292.811 45.774 315.842 41.012 333.069 43.104 C 348.151 44.935 369.47 52.59 379.159 64.972 C 379.71 65.675 380.226 66.395 380.746 67.12 C 378.269 67.951 375.823 68.778 373.272 69.361 C 374.288 67.967 375.54 67.67 377.077 66.918 C 377.751 65.793 377.705 65.776 377.501 64.47 C 374.891 60.72 369.248 57.636 365.367 55.354 C 344.992 43.254 320.333 40.708 297.915 48.391 C 291.858 50.491 285.917 54.923 279.812 56.372 C 279.522 56.44 279.231 56.5 278.94 56.564" style="stroke-width: 1;" id="object-4"/><path fill="#4E902D" d="M 117.484 90.148 C 132.726 79.926 157.602 79.736 174.895 83.217 C 185.149 85.281 202.602 90.327 210.971 96.673 C 205.533 95.543 200.617 92.368 195.425 90.429 C 178.788 84.215 162.091 81.359 144.322 82.845 C 138.768 83.31 133.206 84.884 127.96 86.71 C 125.121 87.699 121.033 90.021 118.166 90.138 C 117.939 90.147 117.711 90.145 117.484 90.148" style="stroke-width: 1;" id="object-5"/><path fill="#F5BA67" d="M 216.636 383.866 C 256.056 385.869 298.865 399.54 326.169 429.406 C 327.91 431.31 330.08 433.59 331.215 435.903 C 331.997 436.764 332.6 437.728 333.13 438.761 C 333.82 440.105 334.214 441.738 333.584 443.188 C 332.817 444.954 331.042 445.945 329.285 446.488 C 321.054 449.033 298.554 447.779 288.837 447.773 L 225.067 447.741 L 133.964 447.77 C 117.724 447.784 101.376 448.227 85.151 447.713 C 81.82 447.608 73.27 447.584 70.592 445.574 C 69.73 444.928 68.915 443.603 68.763 442.54 C 68.32 439.449 71.485 436.192 73.35 433.992 C 73.386 433.937 73.416 433.878 73.457 433.827 C 94.275 407.955 132.404 393.851 164.058 387.318 L 168.185 386.655 C 183.468 384.868 199.742 382.963 215.11 384.194 L 216.636 383.866 Z" style="stroke-width: 1;" id="object-6"/><path fill="#F3A945" d="M 73.35 433.992 C 73.322 434.128 73.291 434.264 73.259 434.398 C 72.398 437.872 69.397 439.921 70.444 443.672 C 73.235 446.599 77.819 446.211 81.631 446.303 C 98.798 446.714 116.055 446.351 133.23 446.35 L 230.492 446.34 L 291.759 446.368 C 302.544 446.372 313.636 446.898 324.39 446.185 C 326.611 446.038 329.884 445.758 331.498 443.988 C 332.413 442.984 332.759 441.341 332.524 440.027 C 332.278 438.65 331.687 437.218 331.215 435.903 C 331.997 436.764 332.6 437.728 333.13 438.761 C 333.82 440.105 334.214 441.738 333.584 443.188 C 332.817 444.954 331.042 445.945 329.285 446.488 C 321.054 449.033 298.554 447.779 288.837 447.773 L 225.067 447.741 L 133.964 447.77 C 117.724 447.784 101.376 448.227 85.151 447.713 C 81.82 447.608 73.27 447.584 70.592 445.574 C 69.73 444.928 68.915 443.603 68.763 442.54 C 68.32 439.449 71.485 436.192 73.35 433.992" style="stroke-width: 1;" id="object-7"/><path fill="#A06F4B" d="M 223.181 154.859 C 226.525 152.361 231.734 148.838 236.047 148.99 C 239.458 149.111 241.523 151.696 243.684 153.998 L 242.625 156.678 C 238.243 169.953 233.033 182.906 228.926 196.286 C 209.941 258.136 201.202 320.282 216.636 383.866 L 215.11 384.194 C 199.742 382.963 183.468 384.868 168.185 386.655 L 164.058 387.318 C 163.978 378.33 163.734 369.211 164.164 360.235 C 166.784 305.475 180.523 250.772 201.696 200.32 C 206.535 188.789 211.669 175.422 218.248 164.824 C 219.257 161.58 221.662 157.973 223.181 154.859" style="stroke-width: 1;" id="object-8"/><path fill="#8B522A" d="M 215.11 384.194 C 215.355 380.61 210.016 360.023 209.127 353.574 C 205.038 323.891 206.537 292.015 211.849 262.594 C 217.583 230.841 225.105 200.254 236.417 170.004 C 237.822 166.246 239.509 158.838 242.625 156.678 C 238.243 169.953 233.033 182.906 228.926 196.286 C 209.941 258.136 201.202 320.282 216.636 383.866 L 215.11 384.194 Z" style="stroke-width: 1;" id="object-9"/><path fill="#8B522A" d="M 218.248 164.824 C 218.607 168.853 209.659 185.172 207.487 190.23 C 200.009 207.649 192.985 225.533 187.301 243.623 C 174.958 281.898 167.631 321.614 165.506 361.775 C 165.285 366.008 163.706 383.596 165.775 386.323 C 166.577 386.436 167.38 386.561 168.185 386.655 L 164.058 387.318 C 163.978 378.33 163.734 369.211 164.164 360.235 C 166.784 305.475 180.523 250.772 201.696 200.32 C 206.535 188.789 211.669 175.422 218.248 164.824" style="stroke-width: 1;" id="object-10"/></g></svg>