<?xml version="1.0" encoding="utf-8"?>
<svg xmlns="http://www.w3.org/2000/svg" viewBox="60.842 58.923 846.784 208.569" xmlns:bx="https://boxy-svg.com" width="846.784px" height="208.569px"><defs><bx:export><bx:file format="svg"/></bx:export></defs><path fill="#FFFFFF" d="M 451.798 144.25 L 469.305 144.128 C 469.343 175.311 469.813 206.552 469.277 237.727 C 463.611 237.67 457.944 237.674 452.278 237.739 L 452.241 230.011 C 448.329 234.719 443.587 238.265 437.395 239.342 C 430.187 240.595 422.322 238.956 416.395 234.643 C 409.117 229.346 405.029 220.763 403.722 212.027 C 402.143 201.467 403.728 188.871 410.395 180.2 C 414.999 174.212 421.325 170.349 428.888 169.442 C 435.743 168.62 442.257 170.093 447.743 174.394 L 452.258 178.125 C 451.712 166.844 451.812 155.541 451.798 144.25 M 439.614 225.06 C 444.557 223.403 447.957 221.293 450.351 216.398 C 453.334 210.296 453.251 200.618 450.978 194.248 C 449.515 190.15 446.749 186.7 442.7 184.946 C 439.897 183.732 436.77 183.483 433.759 183.806 C 428.731 185.697 425.344 188.022 423.031 193.119 C 420.205 199.345 420.06 208.462 422.668 214.808 C 424.427 219.088 427.564 222.483 431.942 224.113 C 434.324 225 437.088 225.079 439.614 225.06" style="stroke-width: 1;"/><path fill="#FFFFFF" d="M 451.798 144.25 L 469.305 144.128 C 469.343 175.311 469.813 206.552 469.277 237.727 C 463.611 237.67 457.944 237.674 452.278 237.739 L 452.241 230.011 C 453.651 231.84 453.678 234.388 453.986 236.621 C 458.734 236.709 463.491 236.647 468.241 236.646 L 468.106 145.381 C 463.081 145.306 458.072 145.21 453.097 146.009 C 452.405 155.003 453.795 164.152 453.177 173.131 C 453.046 175.025 452.928 176.698 451.472 177.996 C 449.478 177.496 448.757 176.074 447.743 174.394 L 452.258 178.125 C 451.712 166.844 451.812 155.541 451.798 144.25" style="stroke-width: 1;"/><path fill="#FFFFFF" d="M 356.937 169.522 C 376.199 166.861 393.964 180.341 396.587 199.609 C 399.21 218.877 385.692 236.615 366.419 239.198 C 347.2 241.773 329.525 228.304 326.91 209.091 C 324.296 189.878 337.729 172.176 356.937 169.522 M 366.347 224.542 C 370.911 222.952 374.069 219.917 376.095 215.523 C 378.998 209.229 379.178 200.662 376.563 194.241 C 374.756 189.804 371.357 186.306 366.866 184.579 C 363.831 183.412 360.727 183.535 357.548 183.852 C 352.49 185.91 349.148 188.617 347.085 193.804 C 344.491 200.326 344.694 209.668 347.637 216.016 C 349.488 220.007 352.682 223.101 356.895 224.478 C 360.11 225.53 363.109 225.315 366.347 224.542" style="stroke-width: 1;"/><path fill="#FFFFFF" d="M 356.568 170.421 C 365.449 169.776 373.021 170.384 380.7 175.282 C 387.779 179.797 392.452 187.112 394.15 195.274 C 396.146 204.867 394.867 216.097 389.368 224.36 C 384.475 231.713 377.212 236.243 368.629 237.999 C 368.213 238.1 367.796 238.2 367.376 238.283 C 359.028 239.941 349.46 238.029 342.475 233.161 C 335.152 228.058 330.667 220.284 329.195 211.547 C 327.544 201.751 328.925 191.32 334.886 183.166 C 340.307 175.752 347.625 171.845 356.568 170.421 M 366.347 224.542 C 370.911 222.952 374.069 219.917 376.095 215.523 C 378.998 209.229 379.178 200.662 376.563 194.241 C 374.756 189.804 371.357 186.306 366.866 184.579 C 363.831 183.412 360.727 183.535 357.548 183.852 C 352.49 185.91 349.148 188.617 347.085 193.804 C 344.491 200.326 344.694 209.668 347.637 216.016 C 349.488 220.007 352.682 223.101 356.895 224.478 C 360.11 225.53 363.109 225.315 366.347 224.542" style="stroke-width: 1;"/><path fill="#FFFFFF" d="M 320.312 204.144 C 317.844 216.423 313.801 225.88 303.064 233.037 C 293.471 239.432 281.201 241.195 270.003 238.84 C 258.708 236.465 249.069 230.336 242.816 220.536 C 234.925 208.17 233.607 191.243 236.744 177.172 C 239.305 165.685 245.884 155.075 255.94 148.718 C 266.553 142.01 279.848 141.303 291.841 144.146 C 301.374 146.371 309.615 152.332 314.713 160.689 C 317.446 165.253 318.861 170.264 320.023 175.416 C 313.659 175.22 307.337 175.456 300.978 175.696 C 300.396 173.859 299.788 172.026 299.272 170.169 C 294.744 163.431 289.532 160.245 281.671 158.662 C 274.229 158.85 267.839 160.063 262.501 165.786 C 255.605 173.182 253.714 184.586 254.253 194.34 C 254.725 202.88 257.382 211.74 263.854 217.688 C 268.596 221.976 274.897 224.118 281.27 223.608 C 287.125 223.156 292.77 220.492 296.547 215.955 C 299.421 212.503 300.885 208.633 301.649 204.267 C 307.864 204.228 314.101 204.302 320.312 204.144" style="stroke-width: 1;"/><path fill="#FFFFFF" d="M 320.312 204.144 C 317.844 216.423 313.801 225.88 303.064 233.037 C 293.471 239.432 281.201 241.195 270.003 238.84 C 258.708 236.465 249.069 230.336 242.816 220.536 C 234.925 208.17 233.607 191.243 236.744 177.172 C 239.305 165.685 245.884 155.075 255.94 148.718 C 266.553 142.01 279.848 141.303 291.841 144.146 C 301.374 146.371 309.615 152.332 314.713 160.689 C 317.446 165.253 318.861 170.264 320.023 175.416 C 313.659 175.22 307.337 175.456 300.978 175.696 C 300.396 173.859 299.788 172.026 299.272 170.169 L 299.472 170.191 C 300.709 171.074 301.14 172.773 301.746 174.167 C 307.261 174.173 312.783 174.04 318.298 173.97 C 317.369 168.104 315.423 162.702 311.774 157.967 C 305.534 149.868 295.72 145.225 285.708 143.988 C 274.086 142.552 262.368 144.526 253.08 151.994 C 243.27 159.882 238.199 171.392 236.876 183.704 C 235.392 197.513 237.518 212.895 246.528 223.927 C 253.558 232.535 264.089 237.549 275.079 238.577 C 286.652 239.66 297.863 236.617 306.78 229.05 C 313.709 223.171 317.827 214.753 318.611 205.722 C 313.263 205.487 307.874 205.596 302.52 205.576 C 301.982 207.638 301.41 209.753 300.483 211.68 C 297.85 217.154 292.998 221.685 287.181 223.538 C 280.679 225.601 273.617 224.928 267.621 221.674 C 260.76 217.888 256.606 210.723 254.639 203.335 C 251.848 192.849 252.789 179.076 258.444 169.647 C 262.044 163.644 267.428 159.633 274.291 158.172 C 276.363 157.731 279.88 157.487 281.671 158.662 C 274.229 158.85 267.839 160.063 262.501 165.786 C 255.605 173.182 253.714 184.586 254.253 194.34 C 254.725 202.88 257.382 211.74 263.854 217.688 C 268.596 221.976 274.897 224.118 281.27 223.608 C 287.125 223.156 292.77 220.492 296.547 215.955 C 299.421 212.503 300.885 208.633 301.649 204.267 C 307.864 204.228 314.101 204.302 320.312 204.144" style="stroke-width: 1;"/><path fill="#FFFFFF" d="M 541.751 217.295 C 540.401 221.828 538.461 226.059 535.414 229.71 C 529.929 236.282 522.518 239.121 514.211 239.705 C 505.104 240.345 495.819 238.147 488.859 231.994 C 481.516 225.501 478.242 216.422 477.758 206.815 C 477.247 196.662 479.401 186.681 486.449 179.021 C 492.067 172.916 499.914 169.607 508.141 169.257 C 516.898 168.885 525.755 171.118 532.212 177.346 C 541.057 185.876 541.687 197.304 542.09 208.815 C 526.558 208.735 510.775 209.407 495.273 208.69 C 495.891 214.134 496.951 218.924 501.44 222.606 C 504.757 225.326 508.948 226.381 513.187 225.922 C 515.377 225.685 517.422 224.918 519.477 224.17 C 521.384 222.012 523.095 219.978 524.734 217.606 C 530.422 217.632 536.069 217.612 541.751 217.295 M 495.513 196.868 C 500.369 197.055 505.212 196.985 510.069 196.918 L 524.762 197.052 C 523.41 192.141 521.941 186.693 517.128 184.026 C 515.024 182.861 512.353 182.324 509.963 182.372 C 505.813 182.876 502.119 183.839 499.321 187.219 C 497.021 189.997 496.151 193.396 495.513 196.868" style="stroke-width: 1;"/><path fill="#FFFFFF" d="M 541.751 217.295 C 540.401 221.828 538.461 226.059 535.414 229.71 C 529.929 236.282 522.518 239.121 514.211 239.705 C 505.104 240.345 495.819 238.147 488.859 231.994 C 481.516 225.501 478.242 216.422 477.758 206.815 C 477.247 196.662 479.401 186.681 486.449 179.021 C 492.067 172.916 499.914 169.607 508.141 169.257 C 516.898 168.885 525.755 171.118 532.212 177.346 C 541.057 185.876 541.687 197.304 542.09 208.815 C 526.558 208.735 510.775 209.407 495.273 208.69 C 500.343 207.831 506.089 208.204 511.239 208.184 C 521.156 208.147 531.099 208.306 541.01 207.955 C 540.715 196.596 540.045 185.858 531.173 177.542 C 524.745 171.518 516.227 169.592 507.644 169.995 C 499.906 170.359 492.539 173.589 487.294 179.353 C 480.445 186.88 478.172 196.954 478.67 206.904 C 479.129 216.063 482.476 225.093 489.45 231.297 C 496.174 237.278 504.715 239.449 513.575 238.866 C 521.499 238.345 529.301 235.561 534.568 229.356 C 537.306 226.132 539.004 222.596 540.598 218.72 L 525.269 218.86 C 523.752 220.813 522.386 222.692 520.397 224.199 L 519.477 224.17 C 521.384 222.012 523.095 219.978 524.734 217.606 C 530.422 217.632 536.069 217.612 541.751 217.295" style="stroke-width: 1;"/><path fill="#FFFFFF" d="M 510.052 181.301 C 510.381 181.284 510.71 181.239 511.04 181.251 C 514.367 181.374 517.961 183.5 520.308 185.732 C 522.459 187.779 526.065 192.393 525.737 195.58 C 525.668 196.246 525.379 196.873 524.868 197.301 C 522.398 199.368 513.032 198.31 509.569 198.276 C 505.467 198.337 498.442 199.288 494.815 197.417 C 494.776 197.264 494.72 197.115 494.698 196.959 C 494.281 194.006 496.204 189.289 498.005 187.035 C 501.147 183.103 505.29 181.936 510.052 181.301 M 495.513 196.868 C 500.369 197.055 505.212 196.985 510.069 196.918 L 524.762 197.052 C 523.41 192.141 521.941 186.693 517.128 184.026 C 515.024 182.861 512.353 182.324 509.963 182.372 C 505.813 182.876 502.119 183.839 499.321 187.219 C 497.021 189.997 496.151 193.396 495.513 196.868" style="stroke-width: 1;"/><path fill="#FFFFFF" d="M 814.5 223.674 C 809.566 215.086 809.136 203.214 811.487 193.774 C 813.597 185.304 818.374 177.803 826.002 173.339 C 834.258 168.507 843.462 168.297 852.531 170.612 C 860.041 172.865 865.68 177.339 869.345 184.277 C 873.39 191.932 873.775 200.255 873.745 208.734 L 827.459 208.782 C 827.974 214.129 829.254 219.356 833.729 222.832 C 837.268 225.581 841.844 226.231 846.19 225.63 C 847.943 225.387 849.44 224.794 851.075 224.165 C 851.338 224.063 851.603 223.969 851.867 223.872 C 852.787 222.918 853.784 222.044 854.765 221.153 C 855.559 219.696 855.854 218.466 857.551 217.884 C 861.912 216.388 869.113 217.554 873.808 217.74 C 870.132 226.602 865.493 233.718 856.233 237.522 C 848.026 240.892 837.574 240.788 829.415 237.322 C 823.284 234.718 817.447 229.71 814.5 223.674 M 827.776 197.156 C 833.734 197.021 839.693 196.952 845.652 196.95 L 856.406 197.026 C 855.408 192.252 854.256 187.42 849.846 184.594 C 846.34 182.348 842.367 182.378 838.378 182.819 C 834.145 184.657 831.072 186.763 829.369 191.258 C 828.648 193.161 828.144 195.158 827.776 197.156" style="stroke-width: 1;"/><path fill="#FFFFFF" d="M 852.531 170.612 C 860.041 172.865 865.68 177.339 869.345 184.277 C 873.39 191.932 873.775 200.255 873.745 208.734 L 827.459 208.782 C 827.974 214.129 829.254 219.356 833.729 222.832 C 837.268 225.581 841.844 226.231 846.19 225.63 C 847.943 225.387 849.44 224.794 851.075 224.165 C 851.338 224.063 851.603 223.969 851.867 223.872 L 851.981 224.203 C 851.786 224.478 851.643 224.799 851.396 225.029 C 850.465 225.897 848.478 226.362 847.246 226.52 C 842.115 227.177 836.556 226.614 832.469 223.152 C 828.02 219.384 826.813 213.635 826.305 208.128 C 832.83 207.518 839.518 207.852 846.071 207.868 C 854.903 207.85 863.732 207.759 872.56 207.594 C 872.601 203.881 872.535 200.087 872.072 196.4 C 871.104 188.683 867.44 180.44 861.012 175.77 C 858.548 173.98 855.499 172.993 853.145 171.115 C 852.938 170.95 852.736 170.78 852.531 170.612" style="stroke-width: 1;"/><path fill="#FFFFFF" d="M 854.765 221.153 C 855.559 219.696 855.854 218.466 857.551 217.884 C 861.912 216.388 869.113 217.554 873.808 217.74 C 870.132 226.602 865.493 233.718 856.233 237.522 C 848.026 240.892 837.574 240.788 829.415 237.322 C 823.284 234.718 817.447 229.71 814.5 223.674 C 815.316 224.239 815.203 224.068 815.704 224.654 C 820.902 230.728 825.18 235.326 833.066 237.734 C 841.425 240.288 851.355 239.499 859.04 235.25 C 865.19 231.85 870.188 225.644 872.168 218.879 C 869.498 218.962 866.928 218.815 864.266 218.692 C 860.302 218.509 857.867 218.352 854.765 221.153" style="stroke-width: 1;"/><path fill="#FFFFFF" d="M 839.341 181.689 C 842.497 181.328 845.282 181.312 848.175 182.754 C 852.271 184.796 855.963 188.858 857.358 193.248 C 857.839 194.763 857.773 195.729 857.009 197.16 C 854.679 199.247 847.751 198.343 844.569 198.304 C 839.855 198.321 833.668 199.061 829.147 198.175 C 827.879 197.927 827.325 197.563 826.806 196.322 C 826.131 194.709 827.281 192.359 828.061 190.978 C 830.654 186.387 834.228 183.137 839.341 181.689 M 827.776 197.156 C 833.734 197.021 839.693 196.952 845.652 196.95 L 856.406 197.026 C 855.408 192.252 854.256 187.42 849.846 184.594 C 846.34 182.348 842.367 182.378 838.378 182.819 C 834.145 184.657 831.072 186.763 829.369 191.258 C 828.648 193.161 828.144 195.158 827.776 197.156" style="stroke-width: 1;"/><path fill="#FFFFFF" d="M 597.271 170.76 L 614.745 170.757 C 614.601 179.048 614.662 187.355 614.637 195.648 C 614.619 201.652 614.075 208.341 615.297 214.225 C 615.822 216.755 616.827 219.212 618.558 221.162 C 620.8 223.688 623.884 224.839 627.215 224.904 C 630.713 224.973 634.001 224.098 636.545 221.591 C 638.627 219.54 639.852 216.815 640.46 213.987 C 641.71 208.172 641.067 201.701 641.008 195.777 L 640.729 170.781 L 658.469 170.747 C 658.113 193.029 658.446 215.373 658.434 237.662 L 641.265 237.714 L 641.358 230.669 L 640.468 230.713 L 639.916 231.358 C 635.612 236.343 630.112 239.291 623.464 239.689 C 622.089 239.771 620.687 239.714 619.311 239.678 C 613.848 239.709 608.167 237.448 604.356 233.524 C 601.411 230.493 599.512 226.65 598.514 222.567 C 596.58 214.651 597.226 205.865 597.251 197.763 L 597.271 170.76 Z" style="stroke-width: 1;"/><path fill="#FFFFFF" d="M 597.271 170.76 L 614.745 170.757 C 614.601 179.048 614.662 187.355 614.637 195.648 C 614.619 201.652 614.075 208.341 615.297 214.225 C 615.822 216.755 616.827 219.212 618.558 221.162 C 620.8 223.688 623.884 224.839 627.215 224.904 C 630.713 224.973 634.001 224.098 636.545 221.591 C 638.627 219.54 639.852 216.815 640.46 213.987 C 641.71 208.172 641.067 201.701 641.008 195.777 L 640.729 170.781 L 658.469 170.747 C 658.113 193.029 658.446 215.373 658.434 237.662 L 641.265 237.714 L 641.358 230.669 L 641.593 231.535 C 642.041 233.236 641.679 234.991 642.732 236.467 C 647.413 237.163 652.529 236.668 657.261 236.584 C 657.277 215.018 657.625 193.39 657.142 171.835 L 641.767 171.862 C 641.885 182.002 643.204 205.871 641.333 214.435 C 640.697 217.345 639.392 220.165 637.307 222.324 C 634.765 224.957 631.31 226.028 627.715 226.015 C 624.149 226.001 620.75 225.023 618.196 222.436 C 615.917 220.128 614.638 217.062 614 213.92 C 612.334 205.709 613.581 181.77 613.581 171.857 L 598.678 171.808 C 598.52 184.535 596.902 210.965 599.565 222.097 C 600.539 226.168 602.318 229.991 605.224 233.046 C 609.843 237.903 617.034 237.466 619.311 239.678 C 613.848 239.709 608.167 237.448 604.356 233.524 C 601.411 230.493 599.512 226.65 598.514 222.567 C 596.58 214.651 597.226 205.865 597.251 197.763 L 597.271 170.76 Z" style="stroke-width: 1;"/><path fill="#FFFFFF" d="M 758.206 179.067 C 763.807 173.221 769.456 169.335 777.9 169.161 C 781.649 169.083 786.337 169.957 789.548 172.024 C 794.779 174.849 798.123 179.104 799.919 184.777 C 803.015 194.559 801.541 225.499 801.497 237.71 C 795.757 237.671 790.016 237.673 784.274 237.716 L 784.361 211.712 C 784.371 206.619 784.784 201.155 783.946 196.131 C 783.482 193.357 782.584 190.154 780.625 188.041 C 779.659 186.998 778.394 186.22 777.197 185.474 C 773.255 184.177 769.248 183.568 765.381 185.583 C 762.387 187.143 760.04 190.246 759.07 193.456 C 758.537 195.22 758.297 197.069 758.056 198.891 C 758.602 202.902 758.222 207.498 758.219 211.562 L 758.205 237.721 L 740.788 237.645 C 741.38 228.353 740.95 218.824 740.927 209.512 C 741.009 196.607 741.013 183.702 740.937 170.797 C 746.515 170.757 752.286 170.402 757.837 170.937 L 758.216 171.697 L 758.206 179.067 Z" style="stroke-width: 1;"/><path fill="#FFFFFF" d="M 789.548 172.024 C 794.779 174.849 798.123 179.104 799.919 184.777 C 803.015 194.559 801.541 225.499 801.497 237.71 C 795.757 237.671 790.016 237.673 784.274 237.716 L 784.361 211.712 C 784.371 206.619 784.784 201.155 783.946 196.131 C 783.482 193.357 782.584 190.154 780.625 188.041 C 779.659 186.998 778.394 186.22 777.197 185.474 C 778.94 185.474 780.438 186.174 781.634 187.439 C 783.39 189.297 784.23 192.156 784.682 194.61 C 786.399 203.928 785.218 226.07 785.164 236.691 L 800.497 236.619 C 799.661 223.891 802.426 190.366 797.444 180.961 C 795.553 177.391 792.171 175.756 789.982 172.662 C 789.834 172.452 789.693 172.236 789.548 172.024" style="stroke-width: 1;"/><path fill="#FFFFFF" d="M 740.937 170.797 C 746.515 170.757 752.286 170.402 757.837 170.937 L 758.216 171.697 C 753.05 172.337 747.458 171.936 742.242 171.898 C 741.871 193.339 741.503 215.164 742.306 236.583 L 757.449 236.615 C 757.438 231.997 756.811 200.42 758.056 198.891 C 758.602 202.902 758.222 207.498 758.219 211.562 L 758.205 237.721 L 740.788 237.645 C 741.38 228.353 740.95 218.824 740.927 209.512 C 741.009 196.607 741.013 183.702 740.937 170.797" style="stroke-width: 1;"/><path fill="#FFFFFF" d="M 687.909 178.196 C 688.119 177.794 688.157 177.686 688.476 177.279 C 692.305 172.397 698.624 169.761 704.681 169.318 C 710.972 168.858 717.567 170.261 722.294 174.658 C 725.579 177.714 727.661 181.885 728.812 186.176 C 730.708 193.239 730.093 201.363 730.07 208.62 C 730.039 218.319 729.883 228.022 730.14 237.719 L 712.329 237.706 C 713.075 229.508 713.592 202.658 712.263 195.186 C 711.797 192.562 710.78 190.006 709.046 187.957 C 707.053 185.604 704.325 184.281 701.238 184.22 C 697.767 184.151 693.867 185.44 691.343 187.87 C 689.525 189.621 688.422 191.881 687.848 194.316 C 685.893 202.613 687.152 227.768 687.211 237.737 C 681.498 237.665 675.779 237.71 670.066 237.704 C 670.931 215.528 670.113 192.976 670.093 170.763 L 687.158 170.743 L 687.089 178.315 L 687.909 178.196 Z" style="stroke-width: 1;"/><path fill="#FFFFFF" d="M 687.909 178.196 C 688.119 177.794 688.157 177.686 688.476 177.279 C 692.305 172.397 698.624 169.761 704.681 169.318 C 710.972 168.858 717.567 170.261 722.294 174.658 C 725.579 177.714 727.661 181.885 728.812 186.176 C 730.708 193.239 730.093 201.363 730.07 208.62 C 730.039 218.319 729.883 228.022 730.14 237.719 L 712.329 237.706 C 713.075 229.508 713.592 202.658 712.263 195.186 C 711.797 192.562 710.78 190.006 709.046 187.957 C 707.053 185.604 704.325 184.281 701.238 184.22 C 697.767 184.151 693.867 185.44 691.343 187.87 C 689.525 189.621 688.422 191.881 687.848 194.316 C 685.893 202.613 687.152 227.768 687.211 237.737 C 681.498 237.665 675.779 237.71 670.066 237.704 C 670.931 215.528 670.113 192.976 670.093 170.763 L 687.158 170.743 L 687.089 178.315 L 686.279 178.306 C 685.867 176.154 685.979 174.028 686.02 171.849 C 681.015 171.822 675.994 171.87 670.99 171.764 L 671.15 211.991 C 671.161 220.174 671.435 228.508 670.869 236.674 L 686.38 236.759 C 687.076 227.509 686.723 218.165 686.551 208.895 C 686.469 204.476 685.811 199.133 686.678 194.797 C 687.254 191.918 688.548 188.847 690.818 186.898 C 693.773 184.361 698.786 182.841 702.663 183.216 C 705.642 183.504 708.195 185.078 710.034 187.408 C 711.711 189.535 712.717 192.099 713.195 194.75 C 714.185 200.242 713.776 206.216 713.759 211.778 L 713.683 236.671 L 728.653 236.63 C 728.602 226.858 728.611 217.087 728.68 207.317 C 728.704 200.651 729.411 193.151 727.859 186.626 C 726.87 182.471 724.824 178.462 721.712 175.498 C 716.957 170.971 710.57 169.899 704.243 170.305 C 695.89 170.84 690.785 177.91 687.909 178.196" style="stroke-width: 1;"/><path fill="#FFFFFF" d="M 535.283 144.133 L 604.108 144.101 L 604.184 160.716 C 595.643 160.658 587.102 160.667 578.562 160.745 L 578.607 212.884 L 578.579 237.712 C 572.806 237.617 567.016 237.706 561.241 237.712 C 561.881 212.053 560.775 186.327 561.411 160.658 L 535.411 160.71 C 535.579 155.2 535.358 149.646 535.283 144.133" style="stroke-width: 1;"/><path fill="#FFFFFF" d="M 536.468 145.294 C 558.678 144.988 580.934 145.272 603.148 145.262 L 603.149 159.713 C 594.739 159.661 586.034 159.228 577.679 160.225 C 577.164 177.461 577.378 194.734 577.439 211.976 C 577.368 220.223 577.41 228.471 577.566 236.717 L 562.171 236.784 L 562.122 159.773 L 536.452 159.753 C 536.323 155.046 535.795 149.946 536.468 145.294" style="stroke-width: 1;"/><path fill="#FFFFFF" d="M 882.275 144.249 L 900.12 144.151 L 900.216 237.744 C 894.239 237.566 888.217 237.721 882.236 237.743 C 882.971 206.644 882.276 175.367 882.275 144.249" style="stroke-width: 1;"/><path fill="#FFFFFF" d="M 883.163 145.492 C 888.505 145.14 893.934 145.276 899.29 145.225 L 899.379 236.898 L 883.149 236.742 C 882.829 221.416 883.076 206.057 883.072 190.727 C 883.068 175.65 882.816 160.567 883.163 145.492" style="stroke-width: 1;"/><path fill="#6EAC3D" d="M 88.372 67.61 C 91.062 66.549 93.712 65.62 96.542 65.013 C 106.722 62.829 117.472 63.835 126.322 69.636 C 138.052 77.326 143.292 91.322 145.972 104.465 C 146.302 103.887 146.642 103.322 147.012 102.771 C 152.032 95.08 161.982 85.426 171.292 83.408 C 180.332 79.971 189.482 80.807 198.219 84.74 C 202.139 86.5 205.839 88.714 209.243 91.337 L 209.316 91.706 C 203.887 94.131 197.225 94.281 191.502 96.305 C 185.592 98.395 179.622 100.713 174.042 103.562 C 169.552 105.852 165.242 108.632 160.722 110.811 L 159.962 111.401 C 160.262 111.466 160.572 111.535 160.882 111.596 C 165.002 112.412 169.632 111.856 173.842 112.217 C 185.302 113.199 197.123 118.749 203.73 128.382 C 206.003 131.696 207.404 135.163 208.827 138.897 C 209.632 142.096 211.853 148.604 210.141 151.527 C 209.546 151.288 209.081 151.1 208.553 150.728 C 204.117 143.612 185.272 134.28 177.112 130.933 C 172.182 129.347 167.452 127.847 162.282 127.219 C 171.562 135.376 178.872 146.026 179.592 158.692 C 180.172 168.926 176.832 177.094 171.582 185.643 C 167.542 165.022 160.082 151.06 146.332 135.227 C 144.632 133.37 142.762 131.05 139.982 131.134 C 138.102 131.191 137.052 132.196 135.712 133.394 C 124.992 139.689 114.132 150.248 106.162 159.645 C 103.032 163.348 100.282 167.391 97.142 171.06 C 96.372 171.958 95.842 172.894 94.642 172.973 C 94.542 172.77 94.432 172.571 94.332 172.364 C 91.812 166.972 94.122 155.165 96.162 149.797 C 101.702 135.218 115.612 126.031 129.252 119.895 C 113.462 118.167 99.092 117.932 83.672 122.383 C 78.622 123.843 73.752 125.836 68.712 127.337 C 73.312 116.923 81.572 107.335 92.222 102.876 C 105.492 97.323 118.862 100.203 131.712 105.369 C 120.802 88.331 107.152 75.507 88.372 67.61" style="stroke-width: 1;"/><path fill="#5DA133" d="M 177.112 130.933 C 183.642 128.288 202.845 146.195 208.138 146.545 C 208.669 146.006 208.985 145.912 209.051 145.1 C 209.575 138.581 202.869 128.755 198.819 123.935 C 192.852 116.838 178.802 113.575 169.872 113.344 C 166.252 113.251 162.022 113.991 158.522 113.425 C 158.842 112.214 159.072 112.213 159.962 111.401 C 160.262 111.466 160.572 111.535 160.882 111.596 C 165.002 112.412 169.632 111.856 173.842 112.217 C 185.302 113.199 197.123 118.749 203.73 128.382 C 206.003 131.696 207.404 135.163 208.827 138.897 C 209.632 142.096 211.853 148.604 210.141 151.527 C 209.546 151.288 209.081 151.1 208.553 150.728 C 204.117 143.612 185.272 134.28 177.112 130.933" style="stroke-width: 1;"/><path fill="#5DA133" d="M 171.292 83.408 C 180.332 79.971 189.482 80.807 198.219 84.74 C 202.139 86.5 205.839 88.714 209.243 91.337 L 209.316 91.706 C 203.887 94.131 197.225 94.281 191.502 96.305 C 185.592 98.395 179.622 100.713 174.042 103.562 C 169.552 105.852 165.242 108.632 160.722 110.811 C 164.642 103.537 197.317 93.358 206.525 90.429 C 198.135 85.041 189.262 81.57 179.152 82.698 C 176.562 82.987 173.872 83.936 171.292 83.408" style="stroke-width: 1;"/><path fill="#F7AD5E" d="M 111.282 234.966 C 118.482 234.055 126.292 233.127 133.492 234.279 C 150.302 235.874 171.672 240.223 183.152 253.904 C 184.422 255.411 185.532 256.938 185.562 258.967 C 184.732 260.169 184.002 261.064 182.492 261.417 C 181.022 261.763 179.362 261.744 177.852 261.724 C 145.052 261.774 112.132 261.094 79.352 261.822 C 77.052 261.822 74.722 261.881 72.432 261.727 C 70.212 261.578 68.402 261.303 66.892 259.548 C 66.682 258.166 66.702 257.533 67.432 256.305 C 68.912 253.808 71.672 251.547 73.952 249.77 C 85.092 241.074 97.722 237.832 111.282 234.966" style="stroke-width: 1;"/><path fill="#A06749" d="M 135.712 133.394 C 137.052 132.196 138.102 131.191 139.982 131.134 C 142.762 131.05 144.632 133.37 146.332 135.227 C 131.772 164.643 126.952 202.141 133.492 234.279 C 126.292 233.127 118.482 234.055 111.282 234.966 C 110.662 195.028 117.732 168.768 135.712 133.394" style="stroke-width: 1;"/></svg>