<svg xmlns="http://www.w3.org/2000/svg" width="1024" height="1024" viewBox="0 0 1024 1024"><path fill="#5A595A" d="m485.604 477.524 17.507-.122c.038 31.183.508 62.424-.028 93.599a790 790 0 0 0-16.999.012l-.037-7.728c-3.912 4.708-8.654 8.254-14.846 9.331-7.208 1.253-15.073-.386-21-4.699-7.278-5.297-11.366-13.88-12.673-22.616-1.579-10.56.006-23.156 6.673-31.827 4.604-5.988 10.93-9.851 18.493-10.758 6.855-.822 13.369.651 18.855 4.952l4.515 3.731c-.546-11.281-.446-22.584-.46-33.875m-12.184 80.81c4.943-1.657 8.343-3.767 10.737-8.662 2.983-6.102 2.9-15.78.627-22.15-1.463-4.098-4.229-7.548-8.278-9.302-2.803-1.214-5.93-1.463-8.941-1.14-5.028 1.891-8.415 4.216-10.728 9.313-2.826 6.226-2.971 15.343-.363 21.689 1.759 4.28 4.896 7.675 9.274 9.305 2.382.887 5.146.966 7.672.947"/><path fill="#323334" d="m485.604 477.524 17.507-.122c.038 31.183.508 62.424-.028 93.599a790 790 0 0 0-16.999.012l-.037-7.728c1.41 1.829 1.437 4.377 1.745 6.61 4.748.088 9.505.026 14.255.025l-.135-91.265c-5.025-.075-10.034-.171-15.009.628-.692 8.994.698 18.143.08 27.122-.131 1.894-.249 3.567-1.705 4.865-1.994-.5-2.715-1.922-3.729-3.602l4.515 3.731c-.546-11.281-.446-22.584-.46-33.875"/><path fill="#323334" d="M390.743 502.796c19.262-2.661 37.027 10.819 39.65 30.087s-10.895 37.006-30.168 39.589c-19.219 2.575-36.894-10.894-39.509-30.107-2.614-19.213 10.819-36.915 30.027-39.569m9.41 55.02c4.564-1.59 7.722-4.625 9.748-9.019 2.903-6.294 3.083-14.861.468-21.282-1.807-4.437-5.206-7.935-9.697-9.662-3.035-1.167-6.139-1.044-9.318-.727-5.058 2.058-8.4 4.765-10.463 9.952-2.594 6.522-2.391 15.864.552 22.212 1.851 3.991 5.045 7.085 9.258 8.462 3.215 1.052 6.214.837 9.452.064"/><path fill="#5A595A" d="M390.374 503.695c8.881-.645 16.453-.037 24.132 4.861 7.079 4.515 11.752 11.83 13.45 19.992 1.996 9.593.717 20.823-4.782 29.086-4.893 7.353-12.156 11.883-20.739 13.639-.416.101-.833.201-1.253.284-8.348 1.658-17.916-.254-24.901-5.122-7.323-5.103-11.808-12.877-13.28-21.614-1.651-9.796-.27-20.227 5.691-28.381 5.421-7.414 12.739-11.321 21.682-12.745m9.779 54.121c4.564-1.59 7.722-4.625 9.748-9.019 2.903-6.294 3.083-14.861.468-21.282-1.807-4.437-5.206-7.935-9.697-9.662-3.035-1.167-6.139-1.044-9.318-.727-5.058 2.058-8.4 4.765-10.463 9.952-2.594 6.522-2.391 15.864.552 22.212 1.851 3.991 5.045 7.085 9.258 8.462 3.215 1.052 6.214.837 9.452.064"/><path fill="#5A595A" d="M354.118 537.418c-2.468 12.279-6.511 21.736-17.248 28.893-9.593 6.395-21.863 8.158-33.061 5.803-11.295-2.375-20.934-8.504-27.187-18.304-7.891-12.366-9.209-29.293-6.072-43.364 2.561-11.487 9.14-22.097 19.196-28.454 10.613-6.708 23.908-7.415 35.901-4.572a36.52 36.52 0 0 1 22.872 16.543c2.733 4.564 4.148 9.575 5.31 14.727-6.364-.196-12.686.04-19.045.28-.582-1.837-1.19-3.67-1.706-5.527-4.528-6.738-9.74-9.924-17.601-11.507-7.442.188-13.832 1.401-19.17 7.124-6.896 7.396-8.787 18.8-8.248 28.554.472 8.54 3.129 17.4 9.601 23.348a23.2 23.2 0 0 0 17.416 5.92c5.855-.452 11.5-3.116 15.277-7.653 2.874-3.452 4.338-7.322 5.102-11.688 6.215-.039 12.452.035 18.663-.123"/><path fill="#323334" d="M354.118 537.418c-2.468 12.279-6.511 21.736-17.248 28.893-9.593 6.395-21.863 8.158-33.061 5.803-11.295-2.375-20.934-8.504-27.187-18.304-7.891-12.366-9.209-29.293-6.072-43.364 2.561-11.487 9.14-22.097 19.196-28.454 10.613-6.708 23.908-7.415 35.901-4.572a36.52 36.52 0 0 1 22.872 16.543c2.733 4.564 4.148 9.575 5.31 14.727-6.364-.196-12.686.04-19.045.28-.582-1.837-1.19-3.67-1.706-5.527l.2.022c1.237.883 1.668 2.582 2.274 3.976 5.515.006 11.037-.127 16.552-.197-.929-5.866-2.875-11.268-6.524-16.003-6.24-8.099-16.054-12.742-26.066-13.979-11.622-1.436-23.34.538-32.628 8.006-9.81 7.888-14.881 19.398-16.204 31.71-1.484 13.809.642 29.191 9.652 40.223 7.03 8.608 17.561 13.622 28.551 14.65 11.573 1.083 22.784-1.96 31.701-9.527 6.929-5.879 11.047-14.297 11.831-23.328-5.348-.235-10.737-.126-16.091-.146-.538 2.062-1.11 4.177-2.037 6.104-2.633 5.474-7.485 10.005-13.302 11.858a25.09 25.09 0 0 1-19.56-1.864c-6.861-3.786-11.015-10.951-12.982-18.339-2.791-10.486-1.85-24.259 3.805-33.688 3.6-6.003 8.984-10.014 15.847-11.475 2.072-.441 5.589-.685 7.38.49-7.442.188-13.832 1.401-19.17 7.124-6.896 7.396-8.787 18.8-8.248 28.554.472 8.54 3.129 17.4 9.601 23.348a23.2 23.2 0 0 0 17.416 5.92c5.855-.452 11.5-3.116 15.277-7.653 2.874-3.452 4.338-7.322 5.102-11.688 6.215-.039 12.452.035 18.663-.123"/><path fill="#5A595A" d="M575.557 550.569c-1.35 4.533-3.29 8.764-6.337 12.415-5.485 6.572-12.896 9.411-21.203 9.995-9.107.64-18.392-1.558-25.352-7.711-7.343-6.493-10.617-15.572-11.101-25.179-.511-10.153 1.643-20.134 8.691-27.794 5.618-6.105 13.465-9.414 21.692-9.764 8.757-.372 17.614 1.861 24.071 8.089 8.845 8.53 9.475 19.958 9.878 31.469-15.532-.08-31.315.592-46.817-.125.618 5.444 1.678 10.234 6.167 13.916 3.317 2.72 7.508 3.775 11.747 3.316 2.19-.237 4.235-1.004 6.29-1.752 1.907-2.158 3.618-4.192 5.257-6.564 5.688.026 11.335.006 17.017-.311m-46.238-20.427c4.856.187 9.699.117 14.556.05l14.693.134c-1.352-4.911-2.821-10.359-7.634-13.026-2.104-1.165-4.775-1.702-7.165-1.654-4.15.504-7.844 1.467-10.642 4.847-2.3 2.778-3.17 6.177-3.808 9.649"/><path fill="#0F1011" d="M575.557 550.569c-1.35 4.533-3.29 8.764-6.337 12.415-5.485 6.572-12.896 9.411-21.203 9.995-9.107.64-18.392-1.558-25.352-7.711-7.343-6.493-10.617-15.572-11.101-25.179-.511-10.153 1.643-20.134 8.691-27.794 5.618-6.105 13.465-9.414 21.692-9.764 8.757-.372 17.614 1.861 24.071 8.089 8.845 8.53 9.475 19.958 9.878 31.469-15.532-.08-31.315.592-46.817-.125 5.07-.859 10.816-.486 15.966-.506 9.917-.037 19.86.122 29.771-.229-.295-11.359-.965-22.097-9.837-30.413-6.428-6.024-14.946-7.95-23.529-7.547-7.738.364-15.105 3.594-20.35 9.358-6.849 7.527-9.122 17.601-8.624 27.551.459 9.159 3.806 18.189 10.78 24.393 6.724 5.981 15.265 8.152 24.125 7.569 7.924-.521 15.726-3.305 20.993-9.51 2.738-3.224 4.436-6.76 6.03-10.636l-15.329.14c-1.517 1.953-2.883 3.832-4.872 5.339l-.92-.029c1.907-2.158 3.618-4.192 5.257-6.564 5.688.026 11.335.006 17.017-.311"/><path fill="#323334" d="M543.858 514.575c.329-.017.658-.062.988-.05 3.327.123 6.921 2.249 9.268 4.481 2.151 2.047 5.757 6.661 5.429 9.848-.069.666-.358 1.293-.869 1.721-2.47 2.067-11.836 1.009-15.299.975-4.102.061-11.127 1.012-14.754-.859-.039-.153-.095-.302-.117-.458-.417-2.953 1.506-7.67 3.307-9.924 3.142-3.932 7.285-5.099 12.047-5.734m-14.539 15.567c4.856.187 9.699.117 14.556.05l14.693.134c-1.352-4.911-2.821-10.359-7.634-13.026-2.104-1.165-4.775-1.702-7.165-1.654-4.15.504-7.844 1.467-10.642 4.847-2.3 2.778-3.17 6.177-3.808 9.649"/><path fill="#5A595A" d="M848.306 556.948c-4.934-8.588-5.364-20.46-3.013-29.9 2.11-8.47 6.887-15.971 14.515-20.435 8.256-4.832 17.46-5.042 26.529-2.727 7.51 2.253 13.149 6.727 16.814 13.665 4.045 7.655 4.43 15.978 4.4 24.457l-46.286.048c.515 5.347 1.795 10.574 6.27 14.05 3.539 2.749 8.115 3.399 12.461 2.798 1.753-.243 3.25-.836 4.885-1.465.263-.102.528-.196.792-.293.92-.954 1.917-1.828 2.898-2.719.794-1.457 1.089-2.687 2.786-3.269 4.361-1.496 11.562-.33 16.257-.144-3.676 8.862-8.315 15.978-17.575 19.782-8.207 3.37-18.659 3.266-26.818-.2-6.131-2.604-11.968-7.612-14.915-13.648m13.276-26.518a807 807 0 0 1 17.876-.206l10.754.076c-.998-4.774-2.15-9.606-6.56-12.432-3.506-2.246-7.479-2.216-11.468-1.775-4.233 1.838-7.306 3.944-9.009 8.439-.721 1.903-1.225 3.9-1.593 5.898"/><path fill="#323334" d="M886.337 503.886c7.51 2.253 13.149 6.727 16.814 13.665 4.045 7.655 4.43 15.978 4.4 24.457l-46.286.048c.515 5.347 1.795 10.574 6.27 14.05 3.539 2.749 8.115 3.399 12.461 2.798 1.753-.243 3.25-.836 4.885-1.465.263-.102.528-.196.792-.293l.114.331c-.195.275-.338.596-.585.826-.931.868-2.918 1.333-4.15 1.491-5.131.657-10.69.094-14.777-3.368-4.449-3.768-5.656-9.517-6.164-15.024 6.525-.61 13.213-.276 19.766-.26q13.247-.026 26.489-.274c.041-3.713-.025-7.507-.488-11.194-.968-7.717-4.632-15.96-11.06-20.63-2.464-1.79-5.513-2.777-7.867-4.655-.207-.165-.409-.335-.614-.503"/><path fill="#0F1011" d="M888.571 554.427c.794-1.457 1.089-2.687 2.786-3.269 4.361-1.496 11.562-.33 16.257-.144-3.676 8.862-8.315 15.978-17.575 19.782-8.207 3.37-18.659 3.266-26.818-.2-6.131-2.604-11.968-7.612-14.915-13.648.816.565.703.394 1.204.98 5.198 6.074 9.476 10.672 17.362 13.08 8.359 2.554 18.289 1.765 25.974-2.484 6.15-3.4 11.148-9.606 13.128-16.371-2.67.083-5.24-.064-7.902-.187-3.964-.183-6.399-.34-9.501 2.461"/><path fill="#323334" d="M873.147 514.963c3.156-.361 5.941-.377 8.834 1.065 4.096 2.042 7.788 6.104 9.183 10.494.481 1.515.415 2.481-.349 3.912-2.33 2.087-9.258 1.183-12.44 1.144-4.714.017-10.901.757-15.422-.129-1.268-.248-1.822-.612-2.341-1.853-.675-1.613.475-3.963 1.255-5.344 2.593-4.591 6.167-7.841 11.28-9.289m-11.565 15.467a807 807 0 0 1 17.876-.206l10.754.076c-.998-4.774-2.15-9.606-6.56-12.432-3.506-2.246-7.479-2.216-11.468-1.775-4.233 1.838-7.306 3.944-9.009 8.439-.721 1.903-1.225 3.9-1.593 5.898"/><path fill="#5A595A" d="m631.077 504.034 17.474-.003c-.144 8.291-.083 16.598-.108 24.891-.018 6.004-.562 12.693.66 18.577.525 2.53 1.53 4.987 3.261 6.937 2.242 2.526 5.326 3.677 8.657 3.742 3.498.069 6.786-.806 9.33-3.313 2.082-2.051 3.307-4.776 3.915-7.604 1.25-5.815.607-12.286.548-18.21l-.279-24.996 17.74-.034c-.356 22.282-.023 44.626-.035 66.915l-17.169.052.093-7.045-.89.044-.552.645c-4.304 4.985-9.804 7.933-16.452 8.331-1.375.082-2.777.025-4.153-.011-5.463.031-11.144-2.23-14.955-6.154-2.945-3.031-4.844-6.874-5.842-10.957-1.934-7.916-1.288-16.702-1.263-24.804z"/><path fill="#323334" d="m631.077 504.034 17.474-.003c-.144 8.291-.083 16.598-.108 24.891-.018 6.004-.562 12.693.66 18.577.525 2.53 1.53 4.987 3.261 6.937 2.242 2.526 5.326 3.677 8.657 3.742 3.498.069 6.786-.806 9.33-3.313 2.082-2.051 3.307-4.776 3.915-7.604 1.25-5.815.607-12.286.548-18.21l-.279-24.996 17.74-.034c-.356 22.282-.023 44.626-.035 66.915l-17.169.052.093-7.045.235.866c.448 1.701.086 3.456 1.139 4.932 4.681.696 9.797.201 14.529.117.016-21.566.364-43.194-.119-64.749l-15.375.027c.118 10.14 1.437 34.009-.434 42.573-.636 2.91-1.941 5.73-4.026 7.889-2.542 2.633-5.997 3.704-9.592 3.691-3.566-.014-6.965-.992-9.519-3.579-2.279-2.308-3.558-5.374-4.196-8.516-1.666-8.211-.419-32.15-.419-42.063l-14.903-.049c-.158 12.727-1.776 39.157.887 50.289.974 4.071 2.753 7.894 5.659 10.949 4.619 4.857 11.81 4.42 14.087 6.632-5.463.031-11.144-2.23-14.955-6.154-2.945-3.031-4.844-6.874-5.842-10.957-1.934-7.916-1.288-16.702-1.263-24.804z"/><path fill="#5A595A" d="M792.012 512.341c5.601-5.846 11.25-9.732 19.694-9.906 3.749-.078 8.437.796 11.648 2.863 5.231 2.825 8.575 7.08 10.371 12.753 3.096 9.782 1.622 40.722 1.578 52.933q-8.611-.058-17.223.006l.087-26.004c.01-5.093.423-10.557-.415-15.581-.464-2.774-1.362-5.977-3.321-8.09-.966-1.043-2.231-1.821-3.428-2.567-3.942-1.297-7.949-1.906-11.816.109-2.994 1.56-5.341 4.663-6.311 7.873-.533 1.764-.773 3.613-1.014 5.435.546 4.011.166 8.607.163 12.671l-.014 26.159-17.417-.076c.592-9.292.162-18.821.139-28.133q.123-19.357.01-38.715c5.578-.04 11.349-.395 16.9.14l.379.76z"/><path fill="#323334" d="M823.354 505.298c5.231 2.825 8.575 7.08 10.371 12.753 3.096 9.782 1.622 40.722 1.578 52.933q-8.611-.058-17.223.006l.087-26.004c.01-5.093.423-10.557-.415-15.581-.464-2.774-1.362-5.977-3.321-8.09-.966-1.043-2.231-1.821-3.428-2.567 1.743 0 3.241.7 4.437 1.965 1.756 1.858 2.596 4.717 3.048 7.171 1.717 9.318.536 31.46.482 42.081l15.333-.072c-.836-12.728 1.929-46.253-3.053-55.658-1.891-3.57-5.273-5.205-7.462-8.299-.148-.21-.289-.426-.434-.638"/><path fill="#323334" d="M774.743 504.071c5.578-.04 11.349-.395 16.9.14l.379.76c-5.166.64-10.758.239-15.974.201-.371 21.441-.739 43.266.064 64.685l15.143.032c-.011-4.618-.638-36.195.607-37.724.546 4.011.166 8.607.163 12.671l-.014 26.159-17.417-.076c.592-9.292.162-18.821.139-28.133q.123-19.357.01-38.715"/><path fill="#5A595A" d="M721.715 511.47c.21-.402.248-.51.567-.917 3.829-4.882 10.148-7.518 16.205-7.961 6.291-.46 12.886.943 17.613 5.34 3.285 3.056 5.367 7.227 6.518 11.518 1.896 7.063 1.281 15.187 1.258 22.444-.031 9.699-.187 19.402.07 29.099l-17.811-.013c.746-8.198 1.263-35.048-.066-42.52-.466-2.624-1.483-5.18-3.217-7.229-1.993-2.353-4.721-3.676-7.808-3.737-3.471-.069-7.371 1.22-9.895 3.65-1.818 1.751-2.921 4.011-3.495 6.446-1.955 8.297-.696 33.452-.637 43.421-5.713-.072-11.432-.027-17.145-.033.865-22.176.047-44.728.027-66.941l17.065-.02-.069 7.572z"/><path fill="#323334" d="M721.715 511.47c.21-.402.248-.51.567-.917 3.829-4.882 10.148-7.518 16.205-7.961 6.291-.46 12.886.943 17.613 5.34 3.285 3.056 5.367 7.227 6.518 11.518 1.896 7.063 1.281 15.187 1.258 22.444-.031 9.699-.187 19.402.07 29.099l-17.811-.013c.746-8.198 1.263-35.048-.066-42.52-.466-2.624-1.483-5.18-3.217-7.229-1.993-2.353-4.721-3.676-7.808-3.737-3.471-.069-7.371 1.22-9.895 3.65-1.818 1.751-2.921 4.011-3.495 6.446-1.955 8.297-.696 33.452-.637 43.421-5.713-.072-11.432-.027-17.145-.033.865-22.176.047-44.728.027-66.941l17.065-.02-.069 7.572-.81-.009c-.412-2.152-.3-4.278-.259-6.457-5.005-.027-10.026.021-15.03-.085l.16 40.227c.011 8.183.285 16.517-.281 24.683l15.511.085c.696-9.25.343-18.594.171-27.864-.082-4.419-.74-9.762.127-14.098.576-2.879 1.87-5.95 4.14-7.899 2.955-2.537 7.968-4.057 11.845-3.682 2.979.288 5.532 1.862 7.371 4.192 1.677 2.127 2.683 4.691 3.161 7.342.99 5.492.581 11.466.564 17.028l-.076 24.893 14.97-.041q-.077-14.657.027-29.313c.024-6.666.731-14.166-.821-20.691-.989-4.155-3.035-8.164-6.147-11.128-4.755-4.527-11.142-5.599-17.469-5.193-8.353.535-13.458 7.605-16.334 7.891"/><path fill="#323334" d="m569.089 477.407 68.825-.032.076 16.615q-12.812-.087-25.622.029l.045 52.139-.028 24.828c-5.773-.095-11.563-.006-17.338 0 .64-25.659-.466-51.385.17-77.054l-26 .052c.168-5.51-.053-11.064-.128-16.577"/><path fill="#5A595A" d="M570.274 478.568c22.21-.306 44.466-.022 66.68-.032l.001 14.451c-8.41-.052-17.115-.485-25.47.512-.515 17.236-.301 34.509-.24 51.751a899 899 0 0 0 .127 24.741l-15.395.067-.049-77.011-25.67-.02c-.129-4.707-.657-9.807.016-14.459"/><path fill="#323334" d="m916.081 477.523 17.845-.098.096 93.593c-5.977-.178-11.999-.023-17.98-.001.735-31.099.04-62.376.039-93.494"/><path fill="#5A595A" d="M916.969 478.766c5.342-.352 10.771-.216 16.127-.267l.089 91.673-16.23-.156c-.32-15.326-.073-30.685-.077-46.015-.004-15.077-.256-30.16.091-45.235"/><path fill="#6EAC3D" d="M122.183 400.884c2.686-1.061 5.339-1.99 8.167-2.597 10.178-2.184 20.927-1.178 29.777 4.623 11.733 7.69 16.972 21.686 19.652 34.829q.485-.867 1.035-1.694c5.021-7.691 14.974-17.345 24.285-19.363 9.035-3.437 18.189-2.601 26.926 1.332a55 55 0 0 1 11.024 6.597l.073.369c-5.429 2.425-12.091 2.575-17.812 4.599-5.909 2.09-11.878 4.408-17.461 7.257-4.489 2.29-8.801 5.07-13.324 7.249l-.761.59c.308.065.616.134.925.195 4.121.816 8.746.26 12.963.621 11.457.982 23.277 6.532 29.884 16.165 2.273 3.314 3.674 6.781 5.097 10.515.805 3.199 3.026 9.707 1.314 12.63-.595-.239-1.06-.427-1.588-.799-4.436-7.116-23.282-16.448-31.438-19.795-4.932-1.586-9.66-3.086-14.832-3.714 9.277 8.157 16.593 18.807 17.308 31.473.577 10.234-2.759 18.402-8.013 26.951-4.035-20.621-11.497-34.583-25.246-50.416-1.702-1.857-3.566-4.177-6.347-4.093-1.887.057-2.936 1.062-4.272 2.26-10.72 6.295-21.585 16.854-29.547 26.251-3.138 3.703-5.886 7.746-9.024 11.415-.768.898-1.298 1.834-2.501 1.913-.103-.203-.214-.402-.31-.609-2.514-5.392-.206-17.199 1.832-22.567 5.535-14.579 19.446-23.766 33.089-29.902-15.793-1.728-30.16-1.963-45.576 2.488-5.054 1.46-9.92 3.453-14.963 4.954 4.598-10.414 12.863-20.002 23.514-24.461 13.261-5.553 26.631-2.673 39.484 2.493-10.904-17.038-24.559-29.862-43.334-37.759"/><path fill="#5DA133" d="M210.921 464.207c6.531-2.645 25.73 15.262 31.023 15.612.531-.539.847-.633.913-1.445.524-6.519-6.182-16.345-10.232-21.165-5.964-7.097-20.019-10.36-28.952-10.591-3.619-.093-7.844.647-11.346.081.326-1.211.552-1.212 1.437-2.024.308.065.616.134.925.195 4.121.816 8.746.26 12.963.621 11.457.982 23.277 6.532 29.884 16.165 2.273 3.314 3.674 6.781 5.097 10.515.805 3.199 3.026 9.707 1.314 12.63-.595-.239-1.06-.427-1.588-.799-4.436-7.116-23.282-16.448-31.438-19.795"/><path fill="#5DA133" d="M205.099 416.682c9.035-3.437 18.189-2.601 26.926 1.332a55 55 0 0 1 11.024 6.597l.073.369c-5.429 2.425-12.091 2.575-17.812 4.599-5.909 2.09-11.878 4.408-17.461 7.257-4.489 2.29-8.801 5.07-13.324 7.249 3.925-7.274 36.598-17.453 45.806-20.382-8.39-5.388-17.261-8.859-27.368-7.731-2.591.289-5.281 1.238-7.864.71"/><path fill="#F7AD5E" d="M145.084 568.24c7.2-.911 15.012-1.839 22.209-.687 16.817 1.595 38.181 5.944 49.667 19.625 1.264 1.507 2.379 3.034 2.407 5.063-.83 1.202-1.561 2.097-3.068 2.45-1.475.346-3.133.327-4.644.307-32.8.05-65.714-.63-98.498.098-2.296 0-4.63.059-6.921-.095-2.215-.149-4.032-.424-5.543-2.179-.201-1.382-.186-2.015.544-3.243 1.484-2.497 4.239-4.758 6.517-6.535 11.144-8.696 23.772-11.938 37.33-14.804"/><path fill="#A06749" d="M169.519 466.668c1.336-1.198 2.385-2.203 4.272-2.26 2.781-.084 4.645 2.236 6.347 4.093-14.564 29.416-19.381 66.914-12.845 99.052-7.197-1.152-15.009-.224-22.209.687-.617-39.938 6.457-66.198 24.435-101.572"/></svg>